<svg width="100%" viewBox="0 0 690 490" role="img" xmlns="http://www.w3.org/2000/svg" style="">
<title style="fill:rgb(0, 0, 0);stroke:none;color:rgb(11, 11, 11);stroke-width:1px;stroke-linecap:butt;stroke-linejoin:miter;opacity:1;font-family:&quot;Anthropic Sans&quot;, -apple-system, &quot;system-ui&quot;, &quot;Segoe UI&quot;, sans-serif;font-size:16px;font-weight:400;text-anchor:start;dominant-baseline:auto">Mountain and fern tree repeating background pattern</title>
<desc style="fill:rgb(0, 0, 0);stroke:none;color:rgb(11, 11, 11);stroke-width:1px;stroke-linecap:butt;stroke-linejoin:miter;opacity:1;font-family:&quot;Anthropic Sans&quot;, -apple-system, &quot;system-ui&quot;, &quot;Segoe UI&quot;, sans-serif;font-size:16px;font-weight:400;text-anchor:start;dominant-baseline:auto">A seamless repeating pattern of mountain silhouettes and fern trees in orange gradient tones, suitable for website backgrounds.</desc>
<defs>
  <linearGradient id="bgGrad" x1="0" y1="0" x2="0" y2="1">
    <stop offset="0%" stop-color="#E8440A"/>
    <stop offset="100%" stop-color="#FFD4A8"/>
  </linearGradient>
  <pattern id="sceneTile" x="0" y="0" width="170" height="160" patternUnits="userSpaceOnUse">
    <rect width="170" height="160" fill="none"/>

    
    <polygon points="85,10 130,90 40,90" fill="#C73A08" opacity="0.45"/>
    
    <polygon points="20,30 60,90 -20,90" fill="#B83206" opacity="0.35"/>
    
    <polygon points="190,30 230,90 150,90" fill="#B83206" opacity="0.35"/>
    
    <polygon points="140,20 175,90 105,90" fill="#D94D10" opacity="0.3"/>

    
    <rect x="-10" y="88" width="190" height="3" fill="#B83206" opacity="0.25"/>

    
    <line x1="42" y1="88" x2="42" y2="130" stroke="#C04010" stroke-width="1.5" opacity="0.55"/>
    <line x1="42" y1="100" x2="26" y2="112" stroke="#C04010" stroke-width="1" opacity="0.5"/>
    <line x1="42" y1="100" x2="58" y2="112" stroke="#C04010" stroke-width="1" opacity="0.5"/>
    <line x1="42" y1="108" x2="29" y2="118" stroke="#C04010" stroke-width="1" opacity="0.45"/>
    <line x1="42" y1="108" x2="55" y2="118" stroke="#C04010" stroke-width="1" opacity="0.45"/>
    <line x1="42" y1="116" x2="32" y2="124" stroke="#C04010" stroke-width="0.8" opacity="0.4"/>
    <line x1="42" y1="116" x2="52" y2="124" stroke="#C04010" stroke-width="0.8" opacity="0.4"/>
    <line x1="42" y1="122" x2="34" y2="129" stroke="#C04010" stroke-width="0.7" opacity="0.35"/>
    <line x1="42" y1="122" x2="50" y2="129" stroke="#C04010" stroke-width="0.7" opacity="0.35"/>

    
    <line x1="120" y1="88" x2="120" y2="132" stroke="#B83206" stroke-width="1.5" opacity="0.5"/>
    <line x1="120" y1="96" x2="106" y2="108" stroke="#B83206" stroke-width="1" opacity="0.45"/>
    <line x1="120" y1="96" x2="134" y2="108" stroke="#B83206" stroke-width="1" opacity="0.45"/>
    <line x1="120" y1="104" x2="108" y2="115" stroke="#B83206" stroke-width="1" opacity="0.4"/>
    <line x1="120" y1="104" x2="132" y2="115" stroke="#B83206" stroke-width="1" opacity="0.4"/>
    <line x1="120" y1="112" x2="110" y2="122" stroke="#B83206" stroke-width="0.8" opacity="0.38"/>
    <line x1="120" y1="112" x2="130" y2="122" stroke="#B83206" stroke-width="0.8" opacity="0.38"/>
    <line x1="120" y1="120" x2="112" y2="129" stroke="#B83206" stroke-width="0.7" opacity="0.33"/>
    <line x1="120" y1="120" x2="128" y2="129" stroke="#B83206" stroke-width="0.7" opacity="0.33"/>

    
    <line x1="8" y1="88" x2="8" y2="122" stroke="#C04010" stroke-width="1.2" opacity="0.4"/>
    <line x1="8" y1="95" x2="0" y2="104" stroke="#C04010" stroke-width="0.8" opacity="0.35"/>
    <line x1="8" y1="95" x2="16" y2="104" stroke="#C04010" stroke-width="0.8" opacity="0.35"/>
    <line x1="8" y1="103" x2="1" y2="111" stroke="#C04010" stroke-width="0.7" opacity="0.3"/>
    <line x1="8" y1="103" x2="15" y2="111" stroke="#C04010" stroke-width="0.7" opacity="0.3"/>
    <line x1="8" y1="110" x2="2" y2="118" stroke="#C04010" stroke-width="0.6" opacity="0.28"/>
    <line x1="8" y1="110" x2="14" y2="118" stroke="#C04010" stroke-width="0.6" opacity="0.28"/>

    
    <line x1="162" y1="88" x2="162" y2="122" stroke="#B83206" stroke-width="1.2" opacity="0.38"/>
    <line x1="162" y1="95" x2="154" y2="104" stroke="#B83206" stroke-width="0.8" opacity="0.33"/>
    <line x1="162" y1="95" x2="170" y2="104" stroke="#B83206" stroke-width="0.8" opacity="0.33"/>
    <line x1="162" y1="103" x2="155" y2="111" stroke="#B83206" stroke-width="0.7" opacity="0.28"/>
    <line x1="162" y1="103" x2="169" y2="111" stroke="#B83206" stroke-width="0.7" opacity="0.28"/>
    <line x1="162" y1="110" x2="156" y2="118" stroke="#B83206" stroke-width="0.6" opacity="0.26"/>
    <line x1="162" y1="110" x2="168" y2="118" stroke="#B83206" stroke-width="0.6" opacity="0.26"/>

    
    <circle cx="30" cy="92" r="1" fill="#B83206" opacity="0.2"/>
    <circle cx="70" cy="93" r="1" fill="#B83206" opacity="0.2"/>
    <circle cx="100" cy="91" r="1.2" fill="#B83206" opacity="0.2"/>
    <circle cx="148" cy="92" r="1" fill="#B83206" opacity="0.2"/>
  </pattern>
</defs>


<rect width="680" height="480" fill="url(#bgGrad)" style="stroke:none;color:rgb(11, 11, 11);stroke-width:1px;stroke-linecap:butt;stroke-linejoin:miter;opacity:1;font-family:&quot;Anthropic Sans&quot;, -apple-system, &quot;system-ui&quot;, &quot;Segoe UI&quot;, sans-serif;font-size:16px;font-weight:400;text-anchor:start;dominant-baseline:auto"/>


<rect width="680" height="480" fill="url(#sceneTile)" style="stroke:none;color:rgb(11, 11, 11);stroke-width:1px;stroke-linecap:butt;stroke-linejoin:miter;opacity:1;font-family:&quot;Anthropic Sans&quot;, -apple-system, &quot;system-ui&quot;, &quot;Segoe UI&quot;, sans-serif;font-size:16px;font-weight:400;text-anchor:start;dominant-baseline:auto"/>


<text x="340" y="460" text-anchor="middle" font-family="sans-serif" font-size="11" fill="#C04010" opacity="0.5" style="fill:rgb(192, 64, 16);stroke:none;color:rgb(11, 11, 11);stroke-width:1px;stroke-linecap:butt;stroke-linejoin:miter;opacity:0.5;font-family:sans-serif;font-size:11px;font-weight:400;text-anchor:middle;dominant-baseline:auto">↑ repeating tile preview — export as SVG for CSS background use</text>
</svg>